HIERARCHY
ROOT Hips
{
 OFFSET 0.000000 0.000000 0.000000
 CHANNELS 6 Xposition Yposition Zposition Yrotation Xrotation Zrotation
 JOINT Chest
 {
  OFFSET 0.000000 10.383400 0.001500
  CHANNELS 3 Yrotation Xrotation Zrotation
  JOINT Chest2
  {
   OFFSET 0.000000 10.418200 -0.003100
   CHANNELS 3 Yrotation Xrotation Zrotation
   JOINT Chest3
   {
    OFFSET 0.000000 10.375100 0.000000
    CHANNELS 3 Yrotation Xrotation Zrotation
    JOINT Chest4
    {
     OFFSET 0.000000 10.364600 0.000000
     CHANNELS 3 Yrotation Xrotation Zrotation
     JOINT Neck
     {
      OFFSET 0.000000 15.642200 0.000000
      CHANNELS 3 Yrotation Xrotation Zrotation
      JOINT Head
      {
       OFFSET 0.000000 9.697300 -0.006500
       CHANNELS 3 Yrotation Xrotation Zrotation
       End Site
       {
        OFFSET 0.000000 18.492200 -0.003400
       }
      }
     }
     JOINT RightCollar
     {
      OFFSET -3.166800 10.349300 0.000000
      CHANNELS 3 Yrotation Xrotation Zrotation
      JOINT RightShoulder
      {
       OFFSET -14.729700 0.000000 0.000000
       CHANNELS 3 Yrotation Xrotation Zrotation
       JOINT RightElbow
       {
        OFFSET 0.000000 -32.224300 0.000000
        CHANNELS 3 Yrotation Xrotation Zrotation
        JOINT RightWrist
        {
         OFFSET 0.000000 -26.084100 0.000000
         CHANNELS 3 Yrotation Xrotation Zrotation
         End Site
         {
          OFFSET 0.000000 -19.319400 0.000000
         }
        }
       }
      }
     }
     JOINT LeftCollar
     {
      OFFSET 3.166800 10.349300 0.000000
      CHANNELS 3 Yrotation Xrotation Zrotation
      JOINT LeftShoulder
      {
       OFFSET 14.729700 0.000000 0.000000
       CHANNELS 3 Yrotation Xrotation Zrotation
       JOINT LeftElbow
       {
        OFFSET 0.000000 -32.224300 0.000000
        CHANNELS 3 Yrotation Xrotation Zrotation
        JOINT LeftWrist
        {
         OFFSET 0.000000 -26.084100 0.000000
         CHANNELS 3 Yrotation Xrotation Zrotation
         End Site
         {
          OFFSET 0.000000 -19.319400 0.000000
         }
        }
       }
      }
     }
    }
   }
  }
 }
 JOINT RightHip
 {
  OFFSET -8.428900 -0.007500 -0.000800
  CHANNELS 3 Yrotation Xrotation Zrotation
  JOINT RightKnee
  {
   OFFSET 0.000000 -43.834600 0.000700
   CHANNELS 3 Yrotation Xrotation Zrotation
   JOINT RightAnkle
   {
    OFFSET 0.000000 -42.757000 0.001200
    CHANNELS 3 Yrotation Xrotation Zrotation
    JOINT RightToe
    {
     OFFSET 0.000000 -6.946900 15.649300
     CHANNELS 3 Yrotation Xrotation Zrotation
     End Site
     {
      OFFSET 0.000000 -1.580800 6.825800
     }
    }
   }
  }
 }
 JOINT LeftHip
 {
  OFFSET 8.428900 -0.007500 -0.000800
  CHANNELS 3 Yrotation Xrotation Zrotation
  JOINT LeftKnee
  {
   OFFSET 0.000000 -43.834600 0.000700
   CHANNELS 3 Yrotation Xrotation Zrotation
   JOINT LeftAnkle
   {
    OFFSET 0.000000 -42.757000 0.001200
    CHANNELS 3 Yrotation Xrotation Zrotation
    JOINT LeftToe
    {
     OFFSET 0.000000 -6.946900 15.649300
     CHANNELS 3 Yrotation Xrotation Zrotation
     End Site
     {
      OFFSET 0.000000 -1.580800 6.825800
     }
    }
   }
  }
 }
}
MOTION
Frames: 15
Frame Time: 0.008333
0.000000 93.354300 0.000000 0.000000 -5.767877 0.000000 0.000000 11.653817 0.000000 0.000000 -5.885947 0.000000 0.000000 -0.000000 0.000000 0.000000 -0.000000 0.000000 0.000000 12.528835 0.000000 0.000000 0.711642 0.000000 0.000000 -0.000000 0.000000 0.000000 0.000000 -90.000000 0.000000 -2.309062 0.000000 0.000000 2.309062 0.000000 0.000000 -0.000000 0.000000 0.000000 -0.000000 90.000000 0.000000 -2.309062 0.000000 0.000000 2.309062 0.000000 0.000000 8.520406 0.000000 0.000000 1.905762 0.000000 -0.000000 -4.658285 0.000000 0.000000 -0.000000 0.000000 0.000000 8.520406 0.000000 0.000000 1.905762 0.000000 -0.000000 -4.658285 0.000000 0.000000 -0.000000 0.000000
21.251462 126.910322 -41.149743 -16.009604 -27.665461 -0.913918 -0.308399 17.030861 2.290972 -0.061240 1.798119 0.249363 -0.102653 2.989853 0.406313 -0.308633 14.973546 2.016634 1.224548 13.737388 -1.158133 2.720403 -10.236408 -2.644227 -1.950407 -4.860565 -2.908587 5.803721 -12.771640 -5.366047 28.682256 -44.025799 -7.886238 9.190387 8.776072 -17.621501 -3.978701 -7.599600 -4.049327 -1.668234 -6.602575 3.704136 -34.782986 -50.264327 16.561244 -27.686190 5.031088 17.403128 -3.507516 -41.291141 -1.341885 -40.436343 79.823385 -42.113063 0.669424 -11.378276 5.203704 0.002560 -0.006642 0.001136 -4.324194 -34.358196 -5.504948 -2.756941 75.168097 1.429091 -11.715114 -12.369179 -3.884041 0.000479 0.000506 0.000213
21.251603 126.910472 -41.150042 -16.012600 -27.666869 -0.918631 -0.306001 17.028067 2.291429 -0.062205 1.799324 0.250350 -0.104816 2.985670 0.402401 -0.303832 14.978388 2.022934 1.212852 13.742947 -1.152506 2.711380 -10.229030 -2.636359 -1.951905 -4.865144 -2.914892 5.788217 -12.776478 -5.389586 28.545671 -44.023734 -7.730166 9.180207 8.736600 -17.620367 -3.999967 -7.603717 -4.049313 -1.667186 -6.598232 3.717331 -34.645885 -50.269217 16.430392 -27.674980 4.996363 17.451613 -3.515254 -41.290528 -1.341291 -40.419968 79.824107 -42.088908 0.682002 -11.374676 5.199466 0.001349 -0.007263 0.000599 -4.320916 -34.360375 -5.491125 -2.798464 75.170103 1.390433 -11.751535 -12.360752 -3.882468 -0.000566 0.000492 -0.000251
21.250749 126.911019 -41.149933 -16.002629 -27.672280 -0.934896 -0.313573 17.029480 2.298054 -0.065185 1.794166 0.244804 -0.103483 2.990202 0.408009 -0.302005 14.980482 2.025013 1.187827 13.746373 -1.144884 2.734347 -10.226183 -2.644524 -1.949774 -4.864444 -2.916089 5.772987 -12.788241 -5.419470 28.407690 -44.017732 -7.575733 9.165989 8.697951 -17.614690 -4.008457 -7.604040 -4.047929 -1.677332 -6.595664 3.730241 -34.576585 -50.273622 16.374302 -27.623847 4.959159 17.474034 -3.539431 -41.282603 -1.332999 -40.390930 79.825016 -42.047059 0.688928 -11.371563 5.190660 0.002953 -0.007817 0.001311 -4.333766 -34.356757 -5.478186 -2.813474 75.173852 1.377555 -11.756064 -12.359762 -3.881611 -0.000518 0.000378 -0.000230
21.252179 126.911224 -41.149723 -15.998776 -27.674059 -0.936382 -0.320098 17.028974 2.292530 -0.066174 1.793703 0.244856 -0.106016 2.988143 0.406886 -0.306376 14.980051 2.025243 1.188493 13.751119 -1.140824 2.724057 -10.213501 -2.631050 -1.944834 -4.869900 -2.921412 5.761893 -12.792884 -5.440125 28.264171 -44.014834 -7.422249 9.160418 8.665772 -17.602581 -4.009331 -7.602892 -4.046561 -1.682850 -6.591371 3.743697 -34.535933 -50.278588 16.346650 -27.559990 4.920329 17.485021 -3.550093 -41.277886 -1.337652 -40.340973 79.827995 -41.997486 0.694384 -11.373631 5.190920 -0.002063 -0.005783 -0.000916 -4.333250 -34.355899 -5.483435 -2.822214 75.175416 1.370242 -11.746352 -12.359616 -3.881642 0.000223 -0.000408 0.000099
21.252580 126.911202 -41.150265 -15.994575 -27.672740 -0.944417 -0.323858 17.027522 2.294877 -0.068446 1.793645 0.243710 -0.104697 2.987198 0.409336 -0.317253 14.974002 2.023299 1.187206 13.759784 -1.138152 2.718662 -10.206814 -2.624335 -1.943990 -4.880610 -2.932323 5.754262 -12.790047 -5.450537 28.051978 -43.997943 -7.208524 9.206404 8.617480 -17.612093 -4.034523 -7.609716 -4.049511 -1.656175 -6.579729 3.761324 -34.459453 -50.282152 16.273807 -27.525156 4.882479 17.510144 -3.559921 -41.278326 -1.331468 -40.356298 79.824167 -42.002066 0.699202 -11.372178 5.183036 0.000299 -0.005878 0.000133 -4.339375 -34.357822 -5.478420 -2.827773 75.178139 1.362896 -11.734470 -12.362474 -3.880874 0.000468 -0.000452 0.000208
21.252416 126.910806 -41.151725 -15.974810 -27.666373 -0.963358 -0.338817 17.021736 2.303736 -0.071441 1.794171 0.240625 -0.103871 2.986204 0.411269 -0.343543 14.971948 2.018201 1.199465 13.766577 -1.136417 2.719615 -10.201884 -2.618513 -1.917655 -4.880317 -2.934526 5.746468 -12.793770 -5.459181 27.914640 -43.990728 -7.079297 9.213248 8.585338 -17.608440 -4.020253 -7.610564 -4.049160 -1.647770 -6.577642 3.769736 -34.395369 -50.286482 16.203404 -27.522258 4.868327 17.534775 -3.584732 -41.282217 -1.320608 -40.377664 79.819138 -42.016359 0.707153 -11.375259 5.194831 0.000387 -0.009043 0.000172 -4.361854 -34.366650 -5.468452 -2.785504 75.181683 1.404733 -11.739891 -12.364288 -3.881691 0.000435 0.000544 0.000193
21.253041 126.911037 -41.151670 -15.969536 -27.667771 -0.968020 -0.347452 17.024918 2.299724 -0.068036 1.792992 0.243680 -0.109483 2.987005 0.408642 -0.339180 14.971012 2.021555 1.197971 13.768665 -1.136153 2.709840 -10.184222 -2.612694 -1.923461 -4.888977 -2.938795 5.744266 -12.792237 -5.462382 27.838894 -43.986907 -7.002507 9.181770 8.564801 -17.592285 -4.021280 -7.611750 -4.048670 -1.644587 -6.577361 3.772721 -34.341764 -50.286791 16.138226 -27.517041 4.855178 17.563653 -3.603468 -41.276002 -1.313690 -40.334662 79.821932 -41.975141 0.707030 -11.383604 5.194817 -0.000037 -0.006944 -0.000017 -4.356938 -34.362423 -5.472908 -2.763830 75.178823 1.434876 -11.748668 -12.369171 -3.883507 0.000824 0.001378 0.000366
21.253592 126.911307 -41.151553 -15.963762 -27.669772 -0.972006 -0.350766 17.026403 2.298543 -0.069039 1.793516 0.245251 -0.115416 2.986047 0.407552 -0.341191 14.974207 2.021260 1.201860 13.768971 -1.135784 2.711884 -10.180010 -2.613567 -1.932519 -4.899182 -2.941767 5.743079 -12.792888 -5.476828 27.754186 -43.990559 -6.914322 9.148321 8.552191 -17.562239 -4.028149 -7.616881 -4.045056 -1.629266 -6.575731 3.773523 -34.293724 -50.283179 16.078798 -27.435894 4.792292 17.608383 -3.618897 -41.272443 -1.311260 -40.323232 79.827271 -41.959069 0.710281 -11.391113 5.189435 0.001756 -0.006994 0.000779 -4.361269 -34.360554 -5.470168 -2.772833 75.178454 1.427006 -11.762581 -12.371382 -3.882995 -0.000081 0.001542 -0.000036
21.254189 126.911609 -41.151372 -15.959962 -27.672299 -0.973594 -0.357729 17.027744 2.297287 -0.069643 1.793547 0.245360 -0.114451 2.985643 0.407176 -0.348679 14.974926 2.021584 1.205099 13.771657 -1.136871 2.718483 -10.178518 -2.617725 -1.943104 -4.913357 -2.962498 5.740751 -12.789732 -5.474887 27.669113 -43.991579 -6.831040 9.113870 8.544609 -17.523361 -4.029125 -7.615236 -4.045820 -1.611848 -6.580412 3.775257 -34.244861 -50.282990 16.016103 -27.392783 4.750280 17.641643 -3.627247 -41.269364 -1.312219 -40.331482 79.832214 -41.962007 0.714327 -11.398507 5.185078 0.002928 -0.007525 0.001300 -4.358017 -34.359082 -5.473105 -2.801001 75.180381 1.404652 -11.767254 -12.370276 -3.884562 -0.000975 0.001653 -0.000433
21.255314 126.911731 -41.151338 -15.957283 -27.673137 -0.971120 -0.363441 17.025922 2.293069 -0.070202 1.793518 0.245038 -0.112774 2.987690 0.406987 -0.361956 14.970063 2.013658 1.214237 13.777019 -1.134124 2.723940 -10.175801 -2.618465 -1.937454 -4.911510 -2.968243 5.733104 -12.796664 -5.482939 27.616346 -43.988349 -6.778923 9.060414 8.541914 -17.486701 -4.022933 -7.609653 -4.038279 -1.596559 -6.585196 3.773594 -34.144428 -50.279205 15.910191 -27.398837 4.707024 17.676723 -3.633104 -41.268687 -1.316737 -40.318668 79.834818 -41.950597 0.719679 -11.399660 5.183947 0.000207 -0.008457 0.000092 -4.351146 -34.359982 -5.486037 -2.800202 75.184523 1.409072 -11.744668 -12.371175 -3.891129 -0.000457 -0.000129 -0.000203
21.255054 126.912044 -41.151324 -15.957534 -27.676255 -0.973947 -0.367158 17.024011 2.288164 -0.069539 1.797152 0.249265 -0.112823 2.987604 0.406885 -0.362040 14.968408 2.008050 1.217351 13.780481 -1.130813 2.734388 -10.168367 -2.629892 -1.939027 -4.912903 -2.972448 5.721600 -12.804293 -5.494944 27.580981 -43.987188 -6.733298 9.005993 8.543499 -17.459790 -4.027585 -7.605585 -4.027613 -1.575116 -6.588160 3.770374 -34.129951 -50.278924 15.882126 -27.362683 4.670779 17.691836 -3.663518 -41.260666 -1.301617 -40.286591 79.835946 -41.926471 0.724846 -11.408283 5.180617 0.000677 -0.005268 0.000300 -4.350398 -34.357702 -5.483894 -2.802344 75.187998 1.408207 -11.742207 -12.373189 -3.891611 -0.000305 -0.000622 -0.000135
21.254733 126.912421 -41.151160 -15.952232 -27.680067 -0.978914 -0.370894 17.026381 2.288420 -0.071629 1.794226 0.247193 -0.113150 2.987532 0.406218 -0.358586 14.970248 2.003221 1.215996 13.781009 -1.127654 2.744604 -10.163890 -2.633323 -1.944329 -4.914494 -2.972547 5.717945 -12.807326 -5.496714 27.567305 -43.986993 -6.712020 8.956066 8.549074 -17.444489 -4.030085 -7.602318 -4.020039 -1.572316 -6.588552 3.772714 -34.108116 -50.280620 15.857038 -27.327354 4.640671 17.708758 -3.686661 -41.252794 -1.289748 -40.261903 79.834366 -41.907372 0.728197 -11.411042 5.178169 0.001711 -0.004283 0.000759 -4.355372 -34.354800 -5.482341 -2.796640 75.191547 1.414269 -11.736773 -12.374434 -3.893814 0.000108 -0.000631 0.000048
21.254690 126.912244 -41.151990 -15.950233 -27.677266 -0.981909 -0.370860 17.022728 2.288226 -0.067515 1.793815 0.241333 -0.116373 2.986659 0.408262 -0.356785 14.971459 2.005110 1.221976 13.781964 -1.142618 2.740968 -10.163003 -2.619169 -1.948114 -4.915168 -2.971791 5.716439 -12.808273 -5.496113 27.548845 -43.984999 -6.710395 8.931459 8.547821 -17.419881 -4.035998 -7.606270 -4.012718 -1.568056 -6.585410 3.770637 -34.036068 -50.280249 15.781706 -27.320926 4.613395 17.741289 -3.694573 -41.254298 -1.284873 -40.253235 79.833972 -41.897427 0.731835 -11.413317 5.175318 0.002686 -0.005244 0.001192 -4.357502 -34.358864 -5.481103 -2.790992 75.194658 1.423189 -11.735308 -12.376132 -3.899243 0.000571 -0.000856 0.000253
21.254871 126.912169 -41.152591 -15.950226 -27.675488 -0.981959 -0.364485 17.022444 2.285251 -0.070282 1.792615 0.243552 -0.112726 2.986352 0.404764 -0.357748 14.970560 2.006911 1.229029 13.784026 -1.145460 2.731872 -10.164346 -2.610606 -1.953885 -4.914872 -2.970469 5.715409 -12.810386 -5.494715 27.541964 -43.983946 -6.706241 8.909648 8.546734 -17.410412 -4.042809 -7.607362 -4.006190 -1.567054 -6.585212 3.769575 -34.000240 -50.282331 15.748741 -27.298017 4.590872 17.756719 -3.702668 -41.256666 -1.280749 -40.243015 79.835663 -41.891104 0.735329 -11.412528 5.173753 0.002214 -0.006273 0.000983 -4.355749 -34.361178 -5.481151 -2.802435 75.196218 1.414926 -11.738912 -12.376376 -3.901183 -0.000141 -0.000923 -0.000062
